<svg width="1512" height="750" viewBox="0 0 1512 750" fill="none" xmlns="http://www.w3.org/2000/svg">
<g clip-path="url(#clip0_927_2808)">
<rect x="-1" width="1515" height="750" fill="#CFC572"/>
<g clip-path="url(#clip1_927_2808)">
<path d="M709.999 224.959C711.171 232.586 716.569 232.499 722.788 232.398C729.075 232.296 736.202 232.18 740.643 240.014L739.956 241.609C728.95 243.775 723.548 240.081 719.655 237.419C715.695 234.711 713.297 233.07 708.15 239.749C705.703 238.814 703.607 237.426 701.574 236.08C697.97 233.693 694.563 231.437 689.753 232.069L687.058 233.856C686.347 237.43 687.404 239.105 688.145 240.28C688.824 241.358 689.238 242.014 687.777 243.33C684.195 243.275 681.009 242.406 678.102 241.614C674.784 240.71 671.829 239.904 669.063 240.52C665.898 244.248 667.137 246.744 668.929 250.354C669.171 250.841 669.423 251.349 669.676 251.882C663.758 254.713 657.376 257.951 653.646 263.587C653.542 270.04 661.336 271.005 667.956 271.825C670.805 272.177 673.437 272.503 675.128 273.228C675.82 273.524 675.846 274.5 675.879 275.698C675.946 278.125 676.037 281.465 681.733 281.917C685.467 280.297 687.7 277.626 689.612 275.337C691.568 272.995 693.19 271.054 695.744 271.048C696.319 272.311 696.679 273.306 696.979 274.133C697.733 276.211 698.105 277.238 700.531 278.835C707.075 278.339 708.97 273.433 710.715 268.913C711.864 265.939 712.948 263.131 715.251 261.86C715.504 261.936 715.814 262.047 716.156 262.168C717.514 262.652 719.362 263.31 720.038 262.663C722.68 260.135 724.913 257.601 726.948 255.292C735.232 245.894 740.228 240.226 756.134 253.864L748.008 261.348C731.091 258.731 726.8 260.667 720.745 277.916C720.168 279.561 719.553 281.113 718.944 282.651C717.768 285.617 716.615 288.527 715.8 291.935C717.776 298.075 719.182 301.978 721.792 307.859C739.074 307.469 741.775 303.895 745.968 298.346C748.538 294.944 751.668 290.801 759.061 286.195C762.39 280.823 759.361 275.531 756.724 270.925C753.87 265.939 751.476 261.755 758.1 259.144C764.318 261.293 766.008 267.704 767.513 273.41L767.578 273.658C767.394 274.413 767.174 275.329 766.921 276.379L766.905 276.447C763.883 289.019 756.305 320.536 751.157 325.381C730.749 344.613 706.868 361.521 683.128 378.329C668.087 388.978 653.103 399.587 639.095 410.721C633.822 414.911 627.556 419.497 622.199 423.007C621.644 423.477 621.121 423.906 620.626 424.311C617.878 426.563 616.011 428.093 614.569 431.829C614.868 437.509 616.653 438.636 620.55 441.095C621.072 441.424 621.632 441.778 622.23 442.169C653.5 455.233 690.043 458.502 724.053 461.545C725.683 461.691 727.307 461.836 728.924 461.982C723.85 479.867 713.302 487.517 702.856 495.094C692.703 502.458 682.646 509.753 677.802 526.309C674.967 536.003 680.026 545.434 684.815 554.362C691.217 566.298 697.137 577.334 683.064 586.897C672.899 593.808 668.328 585.512 665.333 580.077C664.364 578.319 663.561 576.861 662.786 576.313C656.753 578.23 657.756 585.905 659.236 590.456C665.829 610.762 674.315 615.108 693.863 617.446C688.58 628.133 686.467 634.185 682.98 645.835C657.482 659.063 647.813 669.986 634.308 696.159L621.903 694.792C616.672 695.773 614.179 696.527 610.079 700.169C609.558 702.236 609.483 703.541 609.407 704.869C609.358 705.724 609.308 706.589 609.138 707.674C608.479 711.86 607.763 715.886 607.068 719.801C603.125 741.983 599.818 760.591 610.998 784.279C614.453 790.128 616.609 793.101 621.829 797.693C639.159 811.779 646.281 814.961 666.823 823.459C654.217 858.085 635.925 935.127 639.603 971.371C650.387 982.295 667.223 987.617 682.444 992.429L682.471 992.437C685.988 993.55 689.419 994.634 692.669 995.755C696.114 996.944 699.544 998.153 702.969 999.361L702.993 999.369C714.721 1003.5 726.399 1007.62 738.456 1010.86C737.394 1011.81 736.147 1012.88 734.791 1014.04C725.656 1021.85 711.524 1033.94 715.103 1044.84C726.779 1059.6 778.071 1040.91 792.146 1033.83C795.792 1031.99 798.897 1031.07 801.895 1030.18C806.439 1028.84 810.738 1027.57 816.302 1023.27C831.613 1023.82 849.514 1023.65 864.772 1022.34C870.326 1026.44 873.992 1027.88 879.103 1029.88C880.605 1030.47 882.232 1031.1 884.067 1031.87C884.926 1032.23 885.795 1032.59 886.673 1032.96C908.624 1042.15 936.64 1053.88 960.202 1048.8C981.04 1044.31 960.188 1025.81 948.649 1015.57C946.289 1013.48 944.322 1011.73 943.179 1010.52C951.028 1007.68 958.808 1005.04 966.627 1002.39C970.271 1001.15 973.923 999.915 977.595 998.651C983.073 996.771 988.772 995.212 994.484 993.648C1012.06 988.84 1029.76 983.995 1041.59 969.669C1043.61 947.495 1039.85 928.409 1035.68 907.276C1035.34 905.513 1034.98 903.733 1034.64 901.939C1020.73 830.541 998.369 770.384 958.469 709.533C1004.26 688.653 999.574 671.557 987.883 628.913C987.582 627.816 987.277 626.702 986.968 625.571C1000.43 619.845 1009.49 610.656 1011.41 595.632C1012.59 586.901 1010.16 578.065 1004.69 571.164C1002.94 568.983 998.348 564.289 995.59 563.984C995.82 564.721 996.033 565.346 996.219 565.893C997.102 568.485 997.39 569.329 996.055 571.974C976.697 574.585 987.239 552.036 992.354 541.097C993.179 539.332 993.865 537.864 994.259 536.858C1003.73 512.65 989.776 501.592 974.649 489.603C965.23 482.137 955.355 474.31 950.396 462.723C952.603 462.499 954.796 462.278 956.976 462.059C991.143 458.627 1022.24 455.505 1054.61 442.368C1070.15 433.955 1064.8 428.735 1054.59 419.72C1029.77 400.56 1004.56 381.91 978.979 363.783C976.706 362.143 973.825 360.145 970.587 357.897C955.877 347.691 933.741 332.333 927.212 321.914C924.359 317.357 911.045 270.009 912.239 265.823C921.562 263.428 923.425 272.645 924.972 280.302C925.484 282.833 925.961 285.194 926.662 286.909C928.66 288.709 929.142 288.717 931.171 288.752C931.857 288.763 932.721 288.778 933.88 288.866C935.274 291.402 935.288 294.499 935.301 297.58C935.324 302.51 935.346 307.399 941.023 309.884C944.027 308.747 944.738 307.568 945.432 306.418C946.054 305.387 946.663 304.378 948.895 303.443C950.562 305.353 951.638 308.023 952.69 310.633C954.459 315.022 956.16 319.243 960.487 319.39C963.27 317.943 964.01 316.511 965.281 314.052C965.487 313.655 965.706 313.23 965.95 312.774L966.605 311.54C987.285 321.843 994.005 312.016 978.588 295.118C978.935 294.825 979.25 294.563 979.539 294.323C981.7 292.527 982.372 291.969 983.882 289.041C983.457 281.826 974.695 281.371 967.608 281.002C966.245 280.931 964.941 280.863 963.773 280.751C964.12 280.376 964.459 280.018 964.787 279.671C967.305 277.007 969.184 275.02 969.11 271.203C966.154 267.637 961.05 268.291 955.995 268.938C952.504 269.385 949.037 269.83 946.317 268.878L945.588 265.527C943.841 264.342 940.497 264.288 936.534 264.223C931.963 264.149 926.569 264.061 921.855 262.21L921.77 260.462C925.255 257.896 929.145 257.026 933.297 256.098C934.029 255.934 934.77 255.768 935.518 255.591C938.452 256.264 941.632 257.566 944.84 258.879C949.845 260.928 954.92 263.006 959.24 262.768C960.173 262.717 962.038 259.47 963.135 257.559C963.353 257.178 963.545 256.845 963.689 256.607C966.384 256.464 969.901 258.09 973.725 259.857C979.795 262.662 986.638 265.825 992.188 262.833L992.991 260.119C992.541 256.242 990.737 253.518 988.66 250.382C988.248 249.761 987.826 249.123 987.401 248.457C988.953 248.712 990.722 249.103 992.603 249.518C1000.94 251.36 1011.48 253.687 1015.11 246.869C1015.29 243.179 1013.77 240.653 1011.93 237.603C1011.57 237.012 1011.2 236.394 1010.83 235.751C1011.83 235.138 1012.83 234.55 1013.82 233.97C1020.69 229.946 1026.97 226.27 1026.52 216.77C1022.31 206.653 1010.94 209.833 1002.6 212.164C1002.13 212.297 1001.66 212.426 1001.21 212.55C1001.03 211.624 1000.88 210.767 1000.74 209.969C999.94 205.348 999.477 202.681 994.513 199.832C989.607 200.743 986.752 204.509 983.553 208.727C981.371 211.605 979.029 214.694 975.767 217.23C974.274 216.562 973.83 214.877 973.331 212.983C972.613 210.253 971.78 207.09 967.525 205.92C960.024 208.116 958.285 214.59 956.697 220.501C955.558 224.741 954.496 228.692 951.442 230.564C951.111 230.387 950.812 230.222 950.535 230.07C948.775 229.101 947.903 228.621 945.493 228.457C939.628 232.507 938.396 236.453 937.222 240.213C935.494 245.746 933.893 250.874 917.829 255.328C917.913 254.966 917.996 254.61 918.077 254.259C918.186 253.788 918.293 253.323 918.397 252.87C919.869 246.472 920.968 241.701 923.873 235.213C925.217 234.371 926.744 233.608 928.281 232.839C933.787 230.084 939.437 227.259 937.388 220.495C939.277 218.122 942.114 216.851 944.908 215.599C949.476 213.551 953.929 211.555 953.936 204.884C952.585 203.069 951.152 202.734 949.507 202.35C948.14 202.03 946.626 201.676 944.89 200.411C946.078 197.918 948.315 196.292 950.582 194.646C953.436 192.572 956.336 190.464 957.243 186.548C958.389 181.62 954.35 180.861 951.219 180.273C949.501 179.951 948.056 179.68 947.891 178.799C947.41 176.254 947.555 174.18 947.692 172.237C947.945 168.637 948.166 165.483 944.309 160.603C938.644 158.498 935.118 163.496 931.864 168.108C930.305 170.317 928.809 172.438 927.17 173.648C926.298 174.292 925.509 173.754 924.475 173.05C923.029 172.065 921.105 170.754 917.807 171.902C914.35 176.446 915.644 180.939 916.774 184.865C917.682 188.02 918.484 190.809 916.634 192.965C916.102 192.828 915.624 192.701 915.187 192.585C912.588 191.893 911.387 191.573 908.213 191.837C903.885 197.468 906.774 201.45 909.692 205.473C911.662 208.189 913.646 210.924 913.433 214.197C913.095 214.36 912.782 214.503 912.489 214.637C910.799 215.411 909.801 215.868 908.847 217.787C909.434 220.779 912.363 226.698 914.861 231.747C915.958 233.962 916.974 236.016 917.67 237.575C915.071 246.312 913.063 250.454 908.635 258.366C904.721 248.459 899.264 227.792 894.951 211.457L894.941 211.421C893.459 205.808 892.112 200.708 891.01 196.734L863.06 99.9286C862.327 97.3572 861.449 94.0812 860.456 90.3711C855.829 73.0878 848.679 46.3845 841.747 37.6194C840.98 37.2674 840.465 37.0032 840.088 36.8104C839.59 36.5551 839.336 36.4251 839.068 36.3819C838.79 36.3371 838.496 36.3861 837.898 36.4861C837.51 36.5508 836.995 36.6369 836.273 36.7326C832.818 39.3011 830.06 44.087 828.75 48.1891C818.565 80.05 810.132 112.87 801.753 145.483L801.747 145.508C798.766 157.11 795.792 168.685 792.748 180.182C790.735 187.79 788.825 195.522 786.906 203.284L786.902 203.302C782.317 221.857 777.69 240.58 771.53 258.171C771.095 257.804 770.632 257.419 770.149 257.018C764.664 252.46 756.612 245.767 757.592 238.789C759.685 236.196 762.864 235.118 766.049 234.037C770.548 232.511 775.06 230.981 776.539 225.169C774.967 218.961 775.84 215.18 776.618 211.813C777.891 206.307 778.907 201.906 768.561 189.809C752.726 194.199 751.099 199.803 749.477 205.389C748.461 208.887 747.447 212.378 742.947 215.561C742.31 221.699 745.844 226.722 748.816 230.948C751.323 234.511 753.43 237.507 752.298 240.125C746.001 237.921 743.902 235.048 740.234 230.03L739.935 229.62L740.558 208.979C738.355 205.069 737.678 204.941 734.414 204.321C733.734 204.192 732.941 204.041 731.999 203.831C731.325 200.92 731.662 197.145 732.014 193.21C732.643 186.167 733.318 178.611 728.322 174.58C723.303 174.699 720.141 179.23 717.373 183.196C717.023 183.698 716.679 184.19 716.339 184.663C716.128 183.446 715.928 182.142 715.72 180.787C714.595 173.447 713.239 164.612 708.699 160.016C708.166 159.838 707.739 159.688 707.387 159.564C706.516 159.258 706.11 159.115 705.704 159.112C705.35 159.108 704.995 159.21 704.331 159.4C703.878 159.53 703.282 159.701 702.444 159.908C699.707 162.332 698.946 163.218 696.706 166.122C696.123 165.737 695.517 165.326 694.891 164.902C687.82 160.117 678.217 153.616 671.208 161.615C667.937 169.824 672.269 175.831 676.82 182.141C677.237 182.72 677.661 183.308 678.076 183.894C677.441 184.237 676.835 184.549 676.257 184.848C673.258 186.393 670.988 187.563 669.137 190.731C668.215 198.921 678.412 201.401 686.948 203.478C689.659 204.138 692.203 204.757 694.17 205.505C693.59 205.84 692.948 206.189 692.274 206.555C687.259 209.285 680.506 212.961 684.512 218.598C689.951 221.605 696.57 221.742 701.876 221.852C705.702 221.931 708.846 221.996 710.369 223.114L709.999 224.959ZM927.265 629.599C931.573 633.746 935.793 646.945 937.902 653.541L938.159 654.344C932.548 657.608 929.315 659.928 924.095 663.852L922.394 664.921C919.656 663.181 917.71 660.109 915.848 657.171C915.446 656.537 915.049 655.91 914.648 655.303C916.766 647.986 921.013 640.56 924.976 633.63C925.756 632.266 926.525 630.921 927.265 629.599ZM679.545 671.563C679.584 674.349 679.625 677.276 680.792 681.249C684.944 695.361 701.196 701.933 715.441 707.693C717.292 708.441 719.109 709.176 720.862 709.912L714.575 718.604L702.94 713.428C687.069 706.803 669.718 702.782 653.001 699.087C661.317 683.856 665.375 676.847 679.123 665.834C679.493 667.864 679.519 669.681 679.545 671.563ZM963.266 498.63C979.983 503.015 987.39 518.894 984.051 535.122L982.646 535.173C981.256 519.336 976.095 513.405 967.063 503.027C965.864 501.648 964.603 500.199 963.266 498.63ZM750.396 626.387C755.141 633.999 762.189 646.26 765.549 654.338C763.034 658.135 761.608 659.838 758.67 663.213C753.973 655.375 750.872 653.025 744.729 648.37C743.837 647.695 742.882 646.971 741.848 646.174C744.648 638.689 746.962 633.541 750.396 626.387ZM702.625 515.107C701.501 516.865 700.347 518.672 699.718 520.173C696.09 528.814 696.118 533.964 696.16 541.828C696.167 543.078 696.174 544.396 696.167 545.808L694.962 545.776C687.09 529.016 689.172 518.209 705.508 508.471C706.146 509.595 704.424 512.289 702.625 515.107Z" fill="#303220"/>
</g>
</g>
<defs>
<clipPath id="clip0_927_2808">
<rect width="1514" height="750" fill="white" transform="translate(-1)"/>
</clipPath>
<clipPath id="clip1_927_2808">
<rect width="476" height="714" fill="white" transform="translate(596 36)"/>
</clipPath>
</defs>
</svg>
