<svg width="476" height="714" viewBox="0 0 476 714" fill="none" xmlns="http://www.w3.org/2000/svg">
<g clip-path="url(#clip0_443_229)">
<path d="M113.999 188.959C115.171 196.586 120.569 196.499 126.788 196.398C133.075 196.296 140.202 196.18 144.643 204.014L143.956 205.609C132.95 207.775 127.548 204.081 123.655 201.419C119.695 198.711 117.297 197.07 112.15 203.749C109.703 202.814 107.607 201.426 105.574 200.08C101.97 197.693 98.5632 195.437 93.7529 196.069L91.0583 197.856C90.3474 201.43 91.4038 203.105 92.1445 204.28C92.8243 205.358 93.2383 206.014 91.7769 207.33C88.1948 207.275 85.0089 206.406 82.1021 205.614C78.7837 204.71 75.8286 203.904 73.0629 204.52C69.8975 208.248 71.1369 210.744 72.9292 214.354C73.1711 214.841 73.4232 215.349 73.6758 215.882C67.7584 218.713 61.3759 221.951 57.6457 227.587C57.5423 234.04 65.3359 235.005 71.9562 235.825C74.8053 236.177 77.437 236.503 79.1283 237.228C79.8197 237.524 79.8465 238.5 79.8792 239.698C79.9457 242.125 80.0373 245.465 85.7326 245.917C89.4675 244.297 91.6995 241.626 93.612 239.337C95.5683 236.995 97.1902 235.054 99.7443 235.048C100.319 236.311 100.679 237.306 100.979 238.133C101.733 240.211 102.105 241.238 104.531 242.835C111.075 242.339 112.97 237.433 114.715 232.913C115.864 229.939 116.948 227.131 119.251 225.86C119.504 225.936 119.814 226.047 120.156 226.168C121.514 226.652 123.362 227.31 124.038 226.663C126.68 224.135 128.913 221.601 130.948 219.292C139.232 209.894 144.228 204.226 160.134 217.864L152.008 225.348C135.091 222.731 130.8 224.667 124.745 241.916C124.168 243.561 123.553 245.113 122.944 246.651C121.768 249.617 120.615 252.527 119.8 255.935C121.776 262.075 123.182 265.978 125.792 271.859C143.074 271.469 145.775 267.895 149.968 262.346C152.538 258.944 155.668 254.801 163.061 250.195C166.39 244.823 163.361 239.531 160.724 234.925C157.87 229.939 155.476 225.755 162.1 223.144C168.318 225.293 170.008 231.704 171.513 237.41L171.578 237.658C171.394 238.413 171.174 239.329 170.921 240.379L170.905 240.447C167.883 253.019 160.305 284.536 155.157 289.381C134.749 308.613 110.868 325.521 87.128 342.329C72.0873 352.978 57.1033 363.587 43.0952 374.721C37.8224 378.911 31.5561 383.497 26.1987 387.007C25.644 387.477 25.1206 387.906 24.6258 388.311C21.878 390.563 20.0111 392.093 18.5695 395.829C18.8677 401.509 20.6535 402.636 24.5502 405.095C25.0717 405.424 25.6319 405.778 26.2305 406.169C57.5 419.233 94.0425 422.502 128.053 425.545C129.683 425.691 131.307 425.836 132.924 425.982C127.85 443.867 117.302 451.517 106.856 459.094C96.7031 466.458 86.6456 473.753 81.8019 490.309C78.9669 500.003 84.0259 509.434 88.8148 518.362C95.2174 530.298 101.137 541.334 87.0641 550.897C76.8991 557.808 72.3277 549.512 69.3326 544.077C68.3643 542.319 67.5608 540.861 66.7862 540.313C60.7525 542.23 61.7564 549.905 63.2357 554.456C69.8295 574.762 78.3147 579.108 97.8634 581.446C92.58 592.133 90.4666 598.185 86.9795 609.835C61.4816 623.063 51.8129 633.986 38.3084 660.159L25.9029 658.792C20.6723 659.773 18.1785 660.527 14.0786 664.169C13.558 666.236 13.4831 667.541 13.4068 668.869C13.3576 669.724 13.3078 670.589 13.1381 671.674C12.479 675.86 11.7634 679.886 11.0677 683.801C7.12514 705.983 3.81779 724.591 14.9979 748.279C18.4533 754.128 20.6089 757.101 25.8289 761.693C43.1586 775.779 50.2808 778.961 70.8229 787.459C58.2166 822.085 39.9253 899.127 43.6026 935.371C54.3865 946.295 71.2232 951.617 86.4445 956.429L86.4706 956.437C89.9883 957.55 93.4194 958.634 96.6694 959.755C100.114 960.944 103.544 962.153 106.969 963.361L106.993 963.369C118.721 967.504 130.399 971.621 142.456 974.859C141.394 975.813 140.147 976.88 138.791 978.04C129.656 985.855 115.524 997.945 119.103 1008.84C130.779 1023.6 182.071 1004.91 196.146 997.827C199.792 995.987 202.897 995.068 205.895 994.182C210.439 992.838 214.738 991.566 220.302 987.268C235.613 987.818 253.514 987.648 268.772 986.338C274.326 990.439 277.992 991.875 283.103 993.878C284.605 994.466 286.232 995.103 288.067 995.872C288.926 996.23 289.795 996.594 290.673 996.961C312.624 1006.15 340.64 1017.88 364.202 1012.8C385.04 1008.31 364.188 989.811 352.649 979.573C350.289 977.478 348.322 975.733 347.179 974.521C355.028 971.68 362.808 969.041 370.627 966.389C374.271 965.154 377.923 963.915 381.595 962.651C387.073 960.771 392.772 959.212 398.484 957.648C416.056 952.84 433.762 947.995 445.588 933.669C447.607 911.495 443.847 892.409 439.683 871.276C439.336 869.513 438.985 867.733 438.635 865.939C424.729 794.541 402.369 734.384 362.469 673.533C408.261 652.653 403.574 635.557 391.883 592.913C391.582 591.816 391.277 590.702 390.968 589.571C404.43 583.845 413.486 574.656 415.409 559.632C416.592 550.901 414.162 542.065 408.688 535.164C406.945 532.983 402.348 528.289 399.59 527.984C399.82 528.721 400.033 529.346 400.219 529.893C401.102 532.485 401.39 533.329 400.055 535.974C380.697 538.585 391.239 516.036 396.354 505.097C397.179 503.332 397.865 501.864 398.259 500.858C407.727 476.65 393.776 465.592 378.649 453.603C369.23 446.137 359.355 438.31 354.396 426.723C356.603 426.499 358.796 426.278 360.976 426.059C395.143 422.628 426.235 419.505 458.606 406.368C474.15 397.955 468.803 392.735 458.585 383.72C433.774 364.56 408.562 345.91 382.979 327.783C380.706 326.143 377.825 324.145 374.587 321.897C359.877 311.691 337.741 296.333 331.212 285.914C328.359 281.357 315.045 234.009 316.239 229.823C325.562 227.428 327.425 236.645 328.972 244.302C329.484 246.833 329.961 249.194 330.662 250.909C332.66 252.709 333.142 252.717 335.171 252.752C335.857 252.763 336.721 252.778 337.88 252.866C339.274 255.402 339.288 258.499 339.301 261.58C339.324 266.51 339.346 271.4 345.023 273.884C348.027 272.747 348.738 271.568 349.432 270.418C350.054 269.387 350.663 268.378 352.895 267.443C354.562 269.353 355.638 272.023 356.69 274.633C358.459 279.022 360.16 283.243 364.487 283.39C367.27 281.943 368.01 280.511 369.281 278.052C369.487 277.655 369.706 277.23 369.95 276.774L370.605 275.54C391.285 285.843 398.005 276.016 382.588 259.118C382.935 258.825 383.25 258.563 383.539 258.323C385.7 256.527 386.372 255.969 387.882 253.041C387.457 245.826 378.695 245.371 371.608 245.002C370.245 244.931 368.941 244.863 367.773 244.751C368.12 244.376 368.459 244.018 368.787 243.671C371.305 241.007 373.184 239.02 373.11 235.203C370.154 231.637 365.05 232.291 359.995 232.938C356.504 233.385 353.037 233.83 350.317 232.878L349.588 229.527C347.841 228.342 344.497 228.288 340.534 228.223C335.963 228.149 330.569 228.061 325.855 226.21L325.77 224.462C329.255 221.896 333.145 221.026 337.297 220.098C338.029 219.934 338.77 219.768 339.518 219.591C342.452 220.264 345.632 221.566 348.84 222.879C353.845 224.928 358.92 227.006 363.24 226.768C364.173 226.717 366.038 223.47 367.135 221.559C367.353 221.178 367.545 220.845 367.689 220.607C370.384 220.464 373.901 222.09 377.725 223.857C383.795 226.662 390.638 229.825 396.188 226.833L396.991 224.119C396.541 220.242 394.737 217.518 392.66 214.382C392.248 213.761 391.826 213.123 391.401 212.457C392.953 212.712 394.722 213.103 396.603 213.518C404.939 215.36 415.478 217.687 419.107 210.869C419.293 207.179 417.768 204.653 415.928 201.603C415.571 201.012 415.198 200.394 414.828 199.751C415.825 199.138 416.829 198.55 417.82 197.97C424.693 193.946 430.972 190.27 430.52 180.77C426.31 170.653 414.937 173.833 406.6 176.164C406.127 176.297 405.664 176.426 405.212 176.55C405.028 175.624 404.88 174.767 404.741 173.969C403.94 169.348 403.477 166.681 398.513 163.832C393.607 164.743 390.752 168.509 387.553 172.727C385.371 175.605 383.029 178.694 379.767 181.23C378.274 180.562 377.83 178.877 377.331 176.983C376.613 174.253 375.78 171.09 371.525 169.92C364.024 172.116 362.285 178.59 360.697 184.501C359.558 188.742 358.496 192.692 355.442 194.564C355.111 194.387 354.812 194.222 354.535 194.07C352.775 193.101 351.903 192.621 349.493 192.457C343.628 196.507 342.396 200.453 341.222 204.213C339.494 209.746 337.893 214.874 321.829 219.328C321.913 218.966 321.996 218.61 322.077 218.259C322.186 217.788 322.293 217.323 322.397 216.87C323.869 210.472 324.968 205.701 327.873 199.213C329.217 198.371 330.744 197.607 332.281 196.839C337.787 194.084 343.437 191.259 341.388 184.495C343.277 182.122 346.114 180.851 348.908 179.599C353.476 177.551 357.929 175.555 357.936 168.884C356.585 167.069 355.152 166.734 353.507 166.35C352.14 166.03 350.626 165.676 348.89 164.411C350.078 161.918 352.315 160.292 354.582 158.646C357.436 156.572 360.336 154.464 361.243 150.548C362.389 145.62 358.35 144.861 355.219 144.273C353.501 143.951 352.056 143.68 351.891 142.799C351.41 140.254 351.556 138.18 351.692 136.237C351.945 132.637 352.166 129.483 348.309 124.603C342.644 122.498 339.118 127.496 335.864 132.108C334.305 134.317 332.809 136.438 331.17 137.648C330.298 138.292 329.509 137.754 328.475 137.05C327.029 136.065 325.105 134.754 321.807 135.902C318.35 140.446 319.643 144.939 320.774 148.865C321.682 152.02 322.484 154.809 320.634 156.965C320.102 156.828 319.624 156.701 319.187 156.585C316.588 155.893 315.387 155.573 312.213 155.837C307.885 161.468 310.774 165.45 313.692 169.473C315.662 172.189 317.646 174.924 317.433 178.197C317.095 178.36 316.782 178.503 316.489 178.637C314.799 179.411 313.801 179.868 312.847 181.787C313.434 184.779 316.363 190.698 318.861 195.747C319.958 197.962 320.974 200.016 321.67 201.575C319.071 210.312 317.063 214.454 312.635 222.366C308.721 212.459 303.264 191.792 298.951 175.457L298.941 175.421C297.459 169.808 296.112 164.708 295.01 160.734L267.06 63.9286C266.327 61.3572 265.449 58.0812 264.456 54.3711C259.829 37.0878 252.679 10.3845 245.747 1.6194C244.98 1.26735 244.465 1.00318 244.088 0.810409C243.59 0.55514 243.336 0.425068 243.068 0.381931C242.79 0.337106 242.496 0.386122 241.898 0.48609C241.51 0.550804 240.995 0.636876 240.273 0.732644C236.818 3.30106 234.06 8.08697 232.75 12.1891C222.565 44.05 214.132 76.8703 205.753 109.483L205.747 109.508C202.766 121.11 199.792 132.685 196.748 144.182C194.735 151.79 192.825 159.522 190.906 167.284L190.902 167.302C186.317 185.857 181.69 204.58 175.53 222.171C175.095 221.804 174.632 221.419 174.149 221.018C168.664 216.46 160.612 209.767 161.592 202.789C163.685 200.196 166.864 199.118 170.049 198.037C174.548 196.511 179.06 194.981 180.539 189.169C178.967 182.961 179.84 179.18 180.618 175.813C181.891 170.307 182.907 165.906 172.561 153.809C156.726 158.199 155.099 163.803 153.477 169.389C152.461 172.887 151.447 176.378 146.947 179.561C146.31 185.699 149.844 190.722 152.816 194.947C155.323 198.511 157.43 201.507 156.298 204.125C150.001 201.921 147.902 199.048 144.234 194.03L143.935 193.62L144.558 172.979C142.355 169.069 141.678 168.941 138.414 168.321C137.734 168.192 136.941 168.041 135.999 167.831C135.325 164.92 135.662 161.145 136.014 157.21C136.643 150.167 137.318 142.611 132.322 138.58C127.303 138.699 124.141 143.23 121.373 147.196C121.023 147.698 120.679 148.19 120.339 148.663C120.128 147.446 119.928 146.142 119.72 144.787C118.595 137.447 117.239 128.612 112.699 124.016C112.166 123.838 111.739 123.688 111.387 123.564C110.516 123.258 110.11 123.115 109.704 123.112C109.35 123.108 108.995 123.21 108.331 123.4C107.878 123.53 107.282 123.701 106.444 123.908C103.707 126.332 102.946 127.218 100.706 130.122C100.123 129.737 99.5167 129.326 98.8906 128.902C91.8203 124.117 82.2165 117.616 75.2079 125.615C71.9375 133.824 76.269 139.831 80.8197 146.141C81.2371 146.72 81.6609 147.308 82.0764 147.894C81.4411 148.237 80.8354 148.549 80.257 148.848C77.2581 150.393 74.9876 151.563 73.1369 154.731C72.2146 162.921 82.4118 165.401 90.9478 167.478C93.6593 168.138 96.2033 168.757 98.1699 169.505C97.5896 169.84 96.9476 170.189 96.2743 170.555C91.2593 173.285 84.5058 176.961 88.5117 182.598C93.9508 185.605 100.57 185.742 105.876 185.852C109.702 185.931 112.846 185.996 114.369 187.114L113.999 188.959ZM331.265 593.599C335.573 597.746 339.793 610.945 341.902 617.541L342.159 618.344C336.548 621.608 333.315 623.928 328.095 627.852L326.394 628.921C323.656 627.181 321.71 624.109 319.848 621.171C319.446 620.537 319.049 619.91 318.648 619.303C320.766 611.986 325.013 604.56 328.976 597.63C329.756 596.266 330.525 594.921 331.265 593.599ZM83.5452 635.563C83.5843 638.349 83.6253 641.276 84.7922 645.249C88.9443 659.361 105.196 665.933 119.441 671.693C121.292 672.441 123.109 673.176 124.862 673.912L118.575 682.604L106.94 677.428C91.0689 670.803 73.7181 666.782 57.0013 663.087C65.3174 647.856 69.3752 640.847 83.1227 629.834C83.4932 631.864 83.5188 633.681 83.5452 635.563ZM367.266 462.63C383.983 467.015 391.39 482.894 388.051 499.122L386.646 499.173C385.256 483.336 380.095 477.405 371.063 467.027C369.864 465.648 368.603 464.199 367.266 462.63ZM154.396 590.387C159.141 597.999 166.189 610.26 169.549 618.338C167.034 622.135 165.608 623.838 162.67 627.213C157.973 619.375 154.872 617.025 148.729 612.37C147.837 611.695 146.882 610.971 145.848 610.174C148.648 602.689 150.962 597.541 154.396 590.387ZM106.625 479.107C105.501 480.865 104.347 482.672 103.718 484.173C100.09 492.814 100.118 497.964 100.16 505.828C100.167 507.078 100.174 508.396 100.167 509.808L98.9625 509.776C91.0902 493.016 93.1718 482.209 109.508 472.471C110.146 473.595 108.424 476.289 106.625 479.107Z" fill="#303220"/>
</g>
<defs>
<clipPath id="clip0_443_229">
<rect width="476" height="714" fill="white"/>
</clipPath>
</defs>
</svg>
